<svg width="18" height="17" viewBox="0 0 18 17" fill="none" xmlns="http://www.w3.org/2000/svg">
<path fill-rule="evenodd" clip-rule="evenodd" d="M2.14844 8.37878H15.9335V14.1225C15.9335 14.7319 15.6914 15.3163 15.2605 15.7471C14.8297 16.178 14.2453 16.4201 13.636 16.4201H4.44594C3.83661 16.4201 3.25223 16.178 2.82136 15.7471C2.3905 15.3163 2.14844 14.7319 2.14844 14.1225V8.37878Z" stroke="#0C4284" stroke-linecap="round" stroke-linejoin="round"/>
<path d="M9.04102 4.9325V16.42" stroke="#0C4284" stroke-linecap="round" stroke-linejoin="round"/>
<path fill-rule="evenodd" clip-rule="evenodd" d="M5.59501 4.93248H9.04127V2.63497C9.04127 0.911845 6.49218 0.589045 5.59501 1.48622C4.69783 2.3834 4.69783 4.0353 5.59501 4.93248ZM12.4875 4.93248H9.04127V2.63497C9.04127 0.911845 11.5903 0.589045 12.4875 1.48622C13.3847 2.3834 13.3847 4.0353 12.4875 4.93248ZM2.14875 4.93248H15.9338C16.2384 4.93248 16.5306 5.05351 16.7461 5.26894C16.9615 5.48437 17.0825 5.77656 17.0825 6.08123V7.22998C17.0825 7.53465 16.9615 7.82684 16.7461 8.04227C16.5306 8.25771 16.2384 8.37874 15.9338 8.37874H2.14875C1.84408 8.37874 1.55189 8.25771 1.33646 8.04227C1.12103 7.82684 1 7.53465 1 7.22998V6.08123C1 5.77656 1.12103 5.48437 1.33646 5.26894C1.55189 5.05351 1.84408 4.93248 2.14875 4.93248V4.93248Z" stroke="#0C4284" stroke-linecap="round" stroke-linejoin="round"/>
</svg>
