<svg width="18" height="18" viewBox="0 0 18 18" fill="none" xmlns="http://www.w3.org/2000/svg">
<path d="M9 16.875C6.91142 16.875 4.90838 16.0453 3.43153 14.5685C1.95468 13.0916 1.125 11.0886 1.125 9C1.125 6.91142 1.95468 4.90838 3.43153 3.43153C4.90838 1.95468 6.91142 1.125 9 1.125C11.0886 1.125 13.0916 1.95468 14.5685 3.43153C16.0453 4.90838 16.875 6.91142 16.875 9C16.875 11.0886 16.0453 13.0916 14.5685 14.5685C13.0916 16.0453 11.0886 16.875 9 16.875ZM9 18C11.3869 18 13.6761 17.0518 15.364 15.364C17.0518 13.6761 18 11.3869 18 9C18 6.61305 17.0518 4.32387 15.364 2.63604C13.6761 0.948212 11.3869 0 9 0C6.61305 0 4.32387 0.948212 2.63604 2.63604C0.948212 4.32387 0 6.61305 0 9C0 11.3869 0.948212 13.6761 2.63604 15.364C4.32387 17.0518 6.61305 18 9 18Z" fill="#0C4284"/>
<path d="M5.91137 6.50925C5.90983 6.54558 5.91574 6.58184 5.92873 6.61581C5.94172 6.64977 5.96153 6.68072 5.98692 6.70674C6.01232 6.73277 6.04277 6.75333 6.0764 6.76715C6.11003 6.78097 6.14614 6.78777 6.1825 6.78713H7.11062C7.26587 6.78713 7.38962 6.66 7.40987 6.50588C7.51112 5.76787 8.01737 5.23013 8.91962 5.23013C9.69137 5.23013 10.3979 5.616 10.3979 6.54412C10.3979 7.2585 9.97712 7.587 9.31225 8.0865C8.55512 8.63663 7.9555 9.279 7.99825 10.3219L8.00162 10.566C8.0028 10.6398 8.03295 10.7102 8.08557 10.762C8.13819 10.8137 8.20905 10.8428 8.28287 10.8427H9.19525C9.26984 10.8427 9.34138 10.8131 9.39412 10.7604C9.44686 10.7076 9.4765 10.6361 9.4765 10.5615V10.4434C9.4765 9.63562 9.78362 9.4005 10.6127 8.77163C11.2979 8.25075 12.0122 7.6725 12.0122 6.45863C12.0122 4.75875 10.5767 3.9375 9.00512 3.9375C7.57975 3.9375 6.01825 4.60125 5.91137 6.50925ZM7.663 12.9926C7.663 13.5922 8.14112 14.0355 8.79925 14.0355C9.48437 14.0355 9.95575 13.5922 9.95575 12.9926C9.95575 12.3716 9.48325 11.9351 8.79812 11.9351C8.14112 11.9351 7.663 12.3716 7.663 12.9926Z" fill="#0C4284"/>
</svg>
