<svg id="Capa_1" enable-background="new 0 0 511.537 511.537" height="512" viewBox="0 0 511.537 511.537" width="512" xmlns="http://www.w3.org/2000/svg"><g><g><path d="m344.268 434.447v39.272l22.612 30.318h-221.223l22.612-30.318v-39.272-34.365h175.07z" fill="#d7d0d6"/><path d="m344.269 434.447-.93-34.365h-175.07v34.365 25.005 14.267l-22.612 30.318h73.294l14.778-19.814c1.507-2.02 2.321-4.473 2.321-6.993v-2.684c0-8.336 6.758-15.094 15.094-15.094h93.126v-25.005z" fill="#c9bfc8"/><path d="m461.911 310.082h-377.86l-76.083 80.17v15.58c0 15.8 12.82 28.62 28.62 28.62h438.36c15.8 0 28.62-12.82 28.62-28.62v-15.58z" fill="#e5e1e5"/><g><g id="XMLID_520_"><g><path d="m503.569 117.512v272.74h-495.6v-272.74c0-15.8 12.82-28.61 28.62-28.61h438.36c15.8 0 28.62 12.81 28.62 28.61z" fill="#99e6fc"/></g></g><path d="m134.049 405.832v-15.58-80.17h-49.998l-76.083 80.17v15.58c0 15.8 12.82 28.62 28.62 28.62h126.08c-15.799 0-28.619-12.82-28.619-28.62z" fill="#d7d0d6"/><path d="m162.667 88.902h-13.297-112.781c-15.806 0-28.62 12.814-28.62 28.62v272.73h126.08v-272.74c0-6.303 2.041-12.128 5.498-16.854 3.188-4.359 10.071-2.707 10.799 2.644 7.051 51.882 51.638 91.996 105.423 91.996 58.668 0 106.397-47.729 106.399-106.396z" fill="#62dbfb"/><circle cx="255.769" cy="88.899" fill="#fef056" r="81.399"/><path d="m236.708 88.899c0-33.913 20.756-62.978 50.242-75.213-9.602-3.985-20.138-6.186-31.181-6.186-44.956 0-81.399 36.444-81.399 81.399s36.444 81.399 81.399 81.399c11.043 0 21.585-2.204 31.187-6.189-29.486-12.235-50.248-41.298-50.248-75.21z" fill="#fee903"/><path d="m394.2 284.995c6.646 0 12.033-5.387 12.033-12.033v-44.319c0-6.646-5.387-12.033-12.033-12.033h-276.863c-6.646 0-12.033 5.387-12.033 12.033v44.319c0 6.646 5.387 12.033 12.033 12.033z" fill="#dff6fd"/><path d="m134.049 216.61h-16.712c-6.646 0-12.033 5.387-12.033 12.033v44.319c0 6.646 5.387 12.033 12.033 12.033h16.712z" fill="#c8effe"/><path d="m333.66 290.083-56.533-18.009c-2.867-.913-5.826 1.12-6.002 4.124l-3.459 59.231c-.224 3.829 4.052 6.24 7.213 4.068l17.373-11.938 17.995 26.188c1.364 1.984 4.078 2.488 6.062 1.124l18.06-12.41c1.984-1.364 2.488-4.077 1.124-6.062l-17.995-26.188 17.373-11.938c3.161-2.169 2.443-7.026-1.211-8.19z" fill="#f47c7c"/></g></g><g><path d="m367.168 96.399h38.45c4.143 0 7.5-3.357 7.5-7.5s-3.357-7.5-7.5-7.5h-38.45c-4.143 0-7.5 3.357-7.5 7.5s3.357 7.5 7.5 7.5z"/><path d="m474.946 81.399h-37.365c-4.143 0-7.5 3.357-7.5 7.5s3.357 7.5 7.5 7.5h37.365c11.644 0 21.117 9.473 21.117 21.117v265.234h-403.334c-4.143 0-7.5 3.357-7.5 7.5s3.357 7.5 7.5 7.5h403.335v8.08c0 11.644-9.474 21.117-21.117 21.117h-438.356c-11.644 0-21.117-9.474-21.117-21.117v-8.08h45.293c4.143 0 7.5-3.357 7.5-7.5s-3.357-7.5-7.5-7.5h-45.293v-265.233c0-11.645 9.474-21.117 21.117-21.117h107.778c4.143 0 7.5-3.357 7.5-7.5s-3.357-7.5-7.5-7.5h-107.778c-19.915 0-36.117 16.202-36.117 36.117v288.313c0 19.915 16.202 36.117 36.117 36.117h124.178v29.283l-18.873 25.307h-9.056c-4.143 0-7.5 3.357-7.5 7.5s3.357 7.5 7.5 7.5h247.95c4.143 0 7.5-3.357 7.5-7.5s-3.357-7.5-7.5-7.5h-10.147l-18.873-25.307v-29.283h123.178c19.915 0 36.117-16.202 36.117-36.117v-288.313c-.002-19.915-16.204-36.118-36.119-36.118zm-136.689 396.803 13.674 18.335h-191.325l13.674-18.335c.967-1.295 1.488-2.867 1.488-4.483v-31.771h161v31.771c.001 1.616.522 3.188 1.489 4.483z"/><path d="m255.769 177.798c49.02 0 88.899-39.88 88.899-88.899s-39.88-88.899-88.899-88.899-88.899 39.88-88.899 88.898c-.001 49.02 39.879 88.9 88.899 88.9zm0-162.798c40.748 0 73.899 33.15 73.899 73.898s-33.151 73.899-73.899 73.899-73.899-33.151-73.899-73.899 33.151-73.898 73.899-73.898z"/><path d="m240.783 126.091c1.433 1.302 3.239 1.95 5.044 1.95 1.881 0 3.76-.704 5.211-2.104l53.332-51.494c2.979-2.877 3.063-7.625.186-10.605-2.878-2.979-7.624-3.063-10.605-.186l-48.276 46.613-15.03-13.664c-3.063-2.784-7.808-2.562-10.595.505-2.786 3.064-2.561 7.809.505 10.595z"/><path d="m117.337 224.11h211c4.143 0 7.5-3.357 7.5-7.5s-3.357-7.5-7.5-7.5h-211c-10.771 0-19.532 8.763-19.532 19.533v44.318c0 10.771 8.762 19.533 19.532 19.533h123.223c4.143 0 7.5-3.357 7.5-7.5s-3.357-7.5-7.5-7.5h-123.223c-2.499 0-4.532-2.033-4.532-4.533v-44.318c0-2.499 2.033-4.533 4.532-4.533z"/><path d="m360.299 224.11h33.901c2.499 0 4.532 2.033 4.532 4.533v44.318c0 2.5-2.033 4.533-4.532 4.533h-28.657c-4.143 0-7.5 3.357-7.5 7.5s3.357 7.5 7.5 7.5h28.657c10.771 0 19.532-8.763 19.532-19.533v-44.318c0-10.771-8.762-19.533-19.532-19.533h-33.901c-4.143 0-7.5 3.357-7.5 7.5s3.357 7.5 7.5 7.5z"/><path d="m344.24 292.705c-.682-4.61-3.864-8.354-8.305-9.769l-56.533-18.009c-3.589-1.146-7.429-.574-10.532 1.559-3.105 2.133-5.012 5.514-5.232 9.274l-3.458 59.231c-.271 4.652 2.081 8.965 6.14 11.254 4.06 2.289 8.967 2.071 12.808-.566l11.192-7.69 13.746 20.006c1.794 2.611 4.497 4.367 7.613 4.944.729.136 1.46.202 2.187.202 2.375 0 4.692-.715 6.69-2.088l18.063-12.41c5.387-3.704 6.759-11.101 3.057-16.489l-13.748-20.008 11.191-7.689c3.84-2.639 5.803-7.143 5.121-11.752zm-29.591 54.207-16.215-23.599c-1.127-1.64-2.858-2.765-4.814-3.127-.454-.085-.911-.126-1.367-.126-1.506 0-2.989.454-4.247 1.318l-12.508 8.595 2.897-49.624 47.362 15.088-12.507 8.594c-1.64 1.127-2.765 2.858-3.127 4.814-.363 1.955.066 3.976 1.192 5.614l16.217 23.601z"/></g></g></svg>