<svg id="Layer_1" enable-background="new 0 0 64 64" height="512" viewBox="0 0 64 64" width="512" xmlns="http://www.w3.org/2000/svg"><g><g><path d="m48.5 27.706h-33c-.828 0-1.5-.672-1.5-1.5v-10.5h36v10.5c0 .829-.672 1.5-1.5 1.5z" fill="#55525b"/></g><g><path d="m14 15.706v4h16.6c.773 0 1.4.627 1.4 1.4v6.6h16.5c.828 0 1.5-.672 1.5-1.5v-10.5z" fill="#353744"/></g><g><path d="m60.5 15.706h-57c-.828 0-1.5-.672-1.5-1.5v-1c0-.828.672-1.5 1.5-1.5h57c.828 0 1.5.672 1.5 1.5v1c0 .829-.672 1.5-1.5 1.5z" fill="#353744"/></g><g><path d="m30.5 15.706h-27c-.828 0-1.5-.672-1.5-1.5v-1c0-.828.672-1.5 1.5-1.5h27c.828 0 1.5.672 1.5 1.5v1c0 .829-.672 1.5-1.5 1.5z" fill="#55525b"/></g><g><path d="m57 19.706c.365 0 .706.099 1 .27v-8.27h-2v8.27c.294-.171.635-.27 1-.27z" fill="#f68820"/></g><g><path d="m54.5 33.706h5c.276 0 .5-.224.5-.5v-8.5c0-.552-.448-1-1-1h-4c-.552 0-1 .448-1 1v8.5c0 .276.224.5.5.5z" fill="#f68820"/></g><g><path d="m55 21.706h4v2h-4z" fill="#b3b4b6"/></g><g><path d="m55 21.706h2v2h-2z" fill="#dbdee3"/></g><g><path d="m59 21.706h-4c0-1.105.895-2 2-2 1.105 0 2 .896 2 2z" fill="#fbbe18"/></g><g><path d="m58 11.706h-27c0-1.105.895-2 2-2h23c1.105 0 2 .896 2 2z" fill="#fbbe18"/></g><g><path d="m57 23.706h-2c-.552 0-1 .448-1 1v8.5c0 .276.224.5.5.5h2.5z" fill="#fbbe18"/></g><path d="m55.5 26.706c-.276 0-.5.224-.5.5v6.5h1v-6.5c0-.276-.224-.5-.5-.5z" fill="#f68820"/><path d="m58.5 30.206c-.276 0-.5.224-.5.5v3h1v-3c0-.276-.224-.5-.5-.5z" fill="#fbbe18"/><g><path d="m6 47.706c3.59 0 6.5-2.91 6.5-6.5 0-3.038-2.462-5.5-5.5-5.5h49.5c3.038 0 5.5 2.462 5.5 5.5 0 3.59-2.91 6.5-6.5 6.5z" fill="#db9e68"/></g><g><path d="m6 44.706c1.933 0 3.5-1.567 3.5-3.5h49.5c0 1.933-1.567 3.5-3.5 3.5z" fill="#be7850"/></g><g><path d="m6 44.706c-2.209 0-4-1.791-4-4 0-2.761 2.239-5 5-5h49.5c-2.761 0-5 2.239-5 5 0 2.209 1.791 4 4 4z" fill="#eec78e"/></g><g><path d="m29 41.706c0-3.314 2.686-6 6-6h-4.5c-3.314 0-6 2.686-6 6s2.686 6 6 6h4.5c-3.314 0-6-2.686-6-6z" fill="#5c76b2"/></g><g><path d="m19.5 41.706v11.586c0 .891 1.077 1.337 1.707.707l2.586-2.586c.391-.391 1.024-.391 1.414 0l2.586 2.586c.63.63 1.707.184 1.707-.707v-11.586z" fill="#6fa4d8"/></g><g><path d="m19.5 47.064c.042.102.073.209.08.323l.065 1.124c.037.63.641 1.069 1.252.909l1.089-.285c.378-.099.779.031 1.027.334l.714.871c.4.488 1.147.488 1.547 0l.714-.871c.248-.302.649-.433 1.027-.334l1.089.285c.611.16 1.215-.279 1.252-.909l.065-1.124c.007-.114.037-.221.08-.323v-5.358h-10v5.358z" fill="#5c76b2"/></g><g><path d="m25.274 34.511.714.871c.248.302.649.433 1.027.334l1.089-.285c.611-.16 1.215.279 1.252.909l.065 1.124c.023.39.271.731.635.873l1.049.41c.588.23.819.94.478 1.471l-.608.948c-.211.329-.211.751 0 1.08l.608.948c.341.531.11 1.242-.478 1.471l-1.049.41c-.364.142-.612.483-.635.873l-.065 1.124c-.037.63-.641 1.069-1.252.909l-1.089-.285c-.378-.099-.779.031-1.027.334l-.714.871c-.4.488-1.147.488-1.547 0l-.714-.871c-.248-.302-.649-.433-1.027-.334l-1.089.285c-.611.16-1.215-.279-1.252-.909l-.065-1.124c-.023-.39-.271-.731-.635-.873l-1.049-.41c-.588-.23-.819-.94-.478-1.471l.608-.948c.211-.329.211-.751 0-1.08l-.608-.948c-.341-.531-.11-1.242.478-1.471l1.049-.41c.364-.142.612-.483.635-.873l.065-1.124c.037-.63.641-1.069 1.252-.909l1.089.285c.378.099.779-.031 1.027-.334l.714-.871c.4-.488 1.146-.488 1.547 0z" fill="#fbbe18"/></g><g><circle cx="24.5" cy="41.706" fill="#f68820" r="5.5"/></g><g><path d="m24.967 37.929.785 2.054 2.196.111c.458.023.646.6.289.888l-1.711 1.381.573 2.123c.12.443-.371.8-.756.549l-1.843-1.199-1.842 1.201c-.385.251-.875-.106-.756-.549l.573-2.123-1.711-1.381c-.357-.288-.17-.865.289-.888l2.196-.111.785-2.054c.163-.431.769-.431.933-.002z" fill="#fbbe18"/></g></g></svg>